<svg xmlns="http://www.w3.org/2000/svg" viewBox="180 180 440 440" fill="#000" stroke="none">
  <g transform="translate(165.470085,651.973519) scale(0.059829,-0.059829)">
    <path d="M2770 6978 c-562 -43 -1077 -406 -1326 -933 -53 -114 -88 -219 -122 -365 l-26 -115 -3 -803 c-4 -875 -3 -893 53 -1116 60 -236 180 -464 355 -673 258 -307 637 -506 1054 -552 104 -12 1864 -13 2145 -2 158 7 240 15 310 31 384 86 713 300 947 615 l45 60 -182 3 -182 2 -70 -66 c-134 -126 -347 -248 -523 -299 -187 -54 -218 -55 -1358 -54 -579 0 -1086 5 -1127 10 -378 44 -727 260 -942 584 -122 184 -190 364 -223 590 -14 96 -15 214 -13 865 4 817 3 791 61 985 61 201 186 406 339 557 179 177 364 282 623 351 79 21 90 21 1249 24 1273 4 1243 5 1427 -53 191 -60 367 -166 515 -311 199 -193 324 -419 390 -703 16 -67 18 -159 23 -867 l6 -793 148 101 147 100 0 619 c0 637 -5 751 -42 919 -127 592 -603 1097 -1168 1241 -180 46 -212 48 -725 49 -269 1 -764 3 -1100 4 -335 1 -653 -1 -705 -5z"/>
    <path d="M2570 4900 l0 -740 145 0 145 0 -2 738 -3 737 -142 3 -143 3 0 -741z"/>
    <path d="M4880 4900 l0 -740 145 0 145 0 0 740 0 740 -145 0 -145 0 0 -740z"/>
    <path d="M410 4786 l0 -685 118 -3 c64 -2 132 -1 150 1 l32 3 0 684 0 684 -150 0 -150 0 0 -684z"/>
    <path d="M7140 4915 l0 -554 -232 -208 c-128 -114 -282 -253 -343 -309 l-110 -101 -80 -6 c-100 -8 -357 -29 -725 -62 -157 -14 -343 -30 -415 -35 -71 -6 -135 -12 -141 -14 -7 -3 -6 -48 4 -147 8 -79 16 -146 18 -148 2 -2 88 4 191 13 103 9 240 21 303 27 63 5 239 21 390 34 151 13 313 27 360 31 47 4 92 8 100 10 8 1 36 3 62 3 45 1 51 5 165 108 65 59 138 126 163 148 24 22 69 63 100 91 54 50 189 171 382 343 l96 86 1 623 1 622 -145 0 -145 0 0 -555z"/>
    <path d="M2080 1585 l0 -145 1830 0 1830 0 0 145 0 145 -1830 0 -1830 0 0 -145z"/>
  </g>
</svg>
